<svg xmlns="http://www.w3.org/2000/svg" xmlns:xlink="http://www.w3.org/1999/xlink" width="1725pt" height="1522pt" viewBox="0.00 0.00 1725.00 1522.00">
<g id="graph0" class="graph" transform="scale(1 1) rotate(0) translate(4 1518)">
<title>RestaurantMaintenanceERD</title>
<polygon fill="white" stroke="none" points="-4,4 -4,-1518 1720.9,-1518 1720.9,4 -4,4"/>
<!-- Equipment -->
<g id="node1" class="node">
<title>Equipment</title>
<polygon fill="none" stroke="black" points="82.93,-773 0,-773 0,-737 82.93,-737 82.93,-773"/>
<text xml:space="preserve" text-anchor="middle" x="41.47" y="-750.8" font-family="Arial" font-size="14.00">Equipment</text>
</g>
<!-- LocatedIn -->
<g id="node9" class="node">
<title>LocatedIn</title>
<polygon fill="none" stroke="black" points="248.12,-1310 168.73,-1292 248.12,-1274 327.51,-1292 248.12,-1310"/>
<text xml:space="preserve" text-anchor="middle" x="248.12" y="-1287.8" font-family="Arial" font-size="14.00">Located In</text>
</g>
<!-- Equipment&#45;&#45;LocatedIn -->
<g id="edge34" class="edge">
<title>Equipment--LocatedIn</title>
<path fill="none" stroke="black" d="M47.06,-773.42C61.12,-828.72 106.03,-997.73 161.93,-1131 185.05,-1186.12 220.46,-1247.6 237.42,-1276.01"/>
</g>
<!-- BelongsToType -->
<g id="node10" class="node">
<title>BelongsToType</title>
<polygon fill="none" stroke="black" points="248.12,-1106 163.43,-1088 248.12,-1070 332.81,-1088 248.12,-1106"/>
<text xml:space="preserve" text-anchor="middle" x="248.12" y="-1083.8" font-family="Arial" font-size="14.00">Belongs To</text>
</g>
<!-- Equipment&#45;&#45;BelongsToType -->
<g id="edge36" class="edge">
<title>Equipment--BelongsToType</title>
<path fill="none" stroke="black" d="M48,-773.27C61.99,-817.52 101.99,-932.71 161.93,-1013 180.44,-1037.79 208.29,-1060.38 227.06,-1074.15"/>
</g>
<!-- HasFault -->
<g id="node11" class="node">
<title>HasFault</title>
<polygon fill="none" stroke="black" points="248.12,-988 208.23,-970 248.12,-952 288.01,-970 248.12,-988"/>
<text xml:space="preserve" text-anchor="middle" x="248.12" y="-965.8" font-family="Arial" font-size="14.00">Has</text>
</g>
<!-- Equipment&#45;&#45;HasFault -->
<g id="edge38" class="edge">
<title>Equipment--HasFault</title>
<path fill="none" stroke="black" d="M51.25,-773.29C68.39,-807.35 109.25,-881.2 161.93,-927 180.56,-943.19 206.36,-955.1 224.68,-962.23"/>
</g>
<!-- Undergoes -->
<g id="node12" class="node">
<title>Undergoes</title>
<polygon fill="none" stroke="black" points="248.12,-902 165.7,-884 248.12,-866 330.54,-884 248.12,-902"/>
<text xml:space="preserve" text-anchor="middle" x="248.12" y="-879.8" font-family="Arial" font-size="14.00">Undergoes</text>
</g>
<!-- Equipment&#45;&#45;Undergoes -->
<g id="edge40" class="edge">
<title>Equipment--Undergoes</title>
<path fill="none" stroke="black" d="M65.52,-773.26C89.05,-791.49 126.98,-819.78 161.93,-841 180.76,-852.44 203.02,-863.6 220.06,-871.68"/>
</g>
<!-- equipment_id -->
<g id="node17" class="node">
<title>equipment_id</title>
<ellipse fill="none" stroke="black" cx="248.12" cy="-798" rx="73.81" ry="18"/>
<text xml:space="preserve" text-anchor="start" x="202.62" y="-794.8" font-family="Arial" font-weight="bold" text-decoration="underline" font-size="14.00">equipment_id</text>
</g>
<!-- Equipment&#45;&#45;equipment_id -->
<g id="edge1" class="edge">
<title>Equipment--equipment_id</title>
<path fill="none" stroke="black" d="M83.39,-763.6C114.3,-770.09 157.07,-779.08 191.15,-786.24"/>
</g>
<!-- equipment_name -->
<g id="node18" class="node">
<title>equipment_name</title>
<ellipse fill="none" stroke="black" cx="248.12" cy="-712" rx="35.19" ry="18"/>
<text xml:space="preserve" text-anchor="middle" x="248.12" y="-707.8" font-family="Arial" font-size="14.00">name</text>
</g>
<!-- Equipment&#45;&#45;equipment_name -->
<g id="edge2" class="edge">
<title>Equipment--equipment_name</title>
<path fill="none" stroke="black" d="M83.39,-746.4C122.12,-738.26 179.46,-726.22 215,-718.75"/>
</g>
<!-- serial_number -->
<g id="node19" class="node">
<title>serial_number</title>
<ellipse fill="none" stroke="black" cx="248.12" cy="-626" rx="72.23" ry="18"/>
<text xml:space="preserve" text-anchor="middle" x="248.12" y="-621.8" font-family="Arial" font-size="14.00">serial_number</text>
</g>
<!-- Equipment&#45;&#45;serial_number -->
<g id="edge3" class="edge">
<title>Equipment--serial_number</title>
<path fill="none" stroke="black" d="M65.52,-736.74C89.05,-718.51 126.98,-690.22 161.93,-669 178.07,-659.2 196.73,-649.6 212.47,-641.97"/>
</g>
<!-- purchase_date -->
<g id="node20" class="node">
<title>purchase_date</title>
<ellipse fill="none" stroke="black" cx="248.12" cy="-540" rx="74.93" ry="18"/>
<text xml:space="preserve" text-anchor="middle" x="248.12" y="-535.8" font-family="Arial" font-size="14.00">purchase_date</text>
</g>
<!-- Equipment&#45;&#45;purchase_date -->
<g id="edge4" class="edge">
<title>Equipment--purchase_date</title>
<path fill="none" stroke="black" d="M51.25,-736.71C68.39,-702.65 109.25,-628.8 161.93,-583 175.06,-571.59 191.75,-562.3 206.87,-555.32"/>
</g>
<!-- equipment_status -->
<g id="node21" class="node">
<title>equipment_status</title>
<ellipse fill="none" stroke="black" cx="248.12" cy="-454" rx="36.8" ry="18"/>
<text xml:space="preserve" text-anchor="middle" x="248.12" y="-449.8" font-family="Arial" font-size="14.00">status</text>
</g>
<!-- Equipment&#45;&#45;equipment_status -->
<g id="edge5" class="edge">
<title>Equipment--equipment_status</title>
<path fill="none" stroke="black" d="M46.51,-736.69C57.47,-690.84 91.77,-569.57 161.93,-497 177.02,-481.4 198.97,-470.5 216.81,-463.58"/>
</g>
<!-- last_service_date -->
<g id="node22" class="node">
<title>last_service_date</title>
<ellipse fill="none" stroke="black" cx="248.12" cy="-368" rx="86.19" ry="18"/>
<text xml:space="preserve" text-anchor="middle" x="248.12" y="-363.8" font-family="Arial" font-size="14.00">last_service_date</text>
</g>
<!-- Equipment&#45;&#45;last_service_date -->
<g id="edge6" class="edge">
<title>Equipment--last_service_date</title>
<path fill="none" stroke="black" d="M44.06,-736.55C49.78,-680.79 73.88,-511.63 161.93,-411 172.4,-399.03 187,-389.99 201.16,-383.37"/>
</g>
<!-- Area -->
<g id="node2" class="node">
<title>Area</title>
<polygon fill="none" stroke="black" points="531.25,-1428 413.31,-1428 413.31,-1392 531.25,-1392 531.25,-1428"/>
<text xml:space="preserve" text-anchor="middle" x="472.28" y="-1405.8" font-family="Arial" font-size="14.00">Restaurant Area</text>
</g>
<!-- area_id -->
<g id="node23" class="node">
<title>area_id</title>
<ellipse fill="none" stroke="black" cx="696.47" cy="-1496" rx="44.86" ry="18"/>
<text xml:space="preserve" text-anchor="start" x="671.95" y="-1492.8" font-family="Arial" font-weight="bold" text-decoration="underline" font-size="14.00">area_id</text>
</g>
<!-- Area&#45;&#45;area_id -->
<g id="edge7" class="edge">
<title>Area--area_id</title>
<path fill="none" stroke="black" d="M520.95,-1428.45C563.92,-1445.08 625.93,-1469.08 663.3,-1483.55"/>
</g>
<!-- area_name -->
<g id="node24" class="node">
<title>area_name</title>
<ellipse fill="none" stroke="black" cx="696.47" cy="-1410" rx="59.89" ry="18"/>
<text xml:space="preserve" text-anchor="middle" x="696.47" y="-1405.8" font-family="Arial" font-size="14.00">area_name</text>
</g>
<!-- Area&#45;&#45;area_name -->
<g id="edge8" class="edge">
<title>Area--area_name</title>
<path fill="none" stroke="black" d="M531.66,-1410C563.93,-1410 603.93,-1410 636.32,-1410"/>
</g>
<!-- Maintenance -->
<g id="node3" class="node">
<title>Maintenance</title>
<polygon fill="none" stroke="black" points="520.36,-380 424.2,-380 424.2,-344 520.36,-344 520.36,-380"/>
<text xml:space="preserve" text-anchor="middle" x="472.28" y="-357.8" font-family="Arial" font-size="14.00">Maintenance</text>
</g>
<!-- HandledBy -->
<g id="node13" class="node">
<title>HandledBy</title>
<polygon fill="none" stroke="black" points="696.47,-654 610.25,-636 696.47,-618 782.68,-636 696.47,-654"/>
<text xml:space="preserve" text-anchor="middle" x="696.47" y="-631.8" font-family="Arial" font-size="14.00">Handled By</text>
</g>
<!-- Maintenance&#45;&#45;HandledBy -->
<g id="edge42" class="edge">
<title>Maintenance--HandledBy</title>
<path fill="none" stroke="black" d="M481.51,-380.46C500.01,-420.46 548.16,-516.62 610.25,-580 627.72,-597.83 651.8,-613.01 669.9,-623.04"/>
</g>
<!-- PerformedBy -->
<g id="node14" class="node">
<title>PerformedBy</title>
<polygon fill="none" stroke="black" points="960.78,-560 861.68,-542 960.78,-524 1059.87,-542 960.78,-560"/>
<text xml:space="preserve" text-anchor="middle" x="960.78" y="-537.8" font-family="Arial" font-size="14.00">Performed By</text>
</g>
<!-- Maintenance&#45;&#45;PerformedBy -->
<g id="edge44" class="edge">
<title>Maintenance--PerformedBy</title>
<path fill="none" stroke="black" d="M486.49,-380.2C508.54,-409.05 555.84,-464.71 610.25,-491 691.14,-530.09 793.92,-541.14 867.04,-543.45"/>
</g>
<!-- UsesPart -->
<g id="node15" class="node">
<title>UsesPart</title>
<polygon fill="none" stroke="black" points="696.47,-466 649.74,-448 696.47,-430 743.19,-448 696.47,-466"/>
<text xml:space="preserve" text-anchor="middle" x="696.47" y="-443.8" font-family="Arial" font-size="14.00">Uses</text>
</g>
<!-- Maintenance&#45;&#45;UsesPart -->
<g id="edge46" class="edge">
<title>Maintenance--UsesPart</title>
<path fill="none" stroke="black" d="M520.67,-380.34C567.19,-398.35 636.22,-425.07 672.02,-438.92"/>
</g>
<!-- maintenance_id -->
<g id="node25" class="node">
<title>maintenance_id</title>
<ellipse fill="none" stroke="black" cx="696.47" cy="-362" rx="84.02" ry="18"/>
<text xml:space="preserve" text-anchor="start" x="643.56" y="-358.8" font-family="Arial" font-weight="bold" text-decoration="underline" font-size="14.00">maintenance_id</text>
</g>
<!-- Maintenance&#45;&#45;maintenance_id -->
<g id="edge9" class="edge">
<title>Maintenance--maintenance_id</title>
<path fill="none" stroke="black" d="M520.67,-362C547.31,-362 581.33,-362 612.26,-362"/>
</g>
<!-- maintenance_date -->
<g id="node26" class="node">
<title>maintenance_date</title>
<ellipse fill="none" stroke="black" cx="696.47" cy="-276" rx="29.83" ry="18"/>
<text xml:space="preserve" text-anchor="middle" x="696.47" y="-271.8" font-family="Arial" font-size="14.00">date</text>
</g>
<!-- Maintenance&#45;&#45;maintenance_date -->
<g id="edge10" class="edge">
<title>Maintenance--maintenance_date</title>
<path fill="none" stroke="black" d="M520.67,-343.66C566.68,-325.85 634.71,-299.52 670.83,-285.54"/>
</g>
<!-- maintenance_type -->
<g id="node27" class="node">
<title>maintenance_type</title>
<ellipse fill="none" stroke="black" cx="696.47" cy="-190" rx="29.29" ry="18"/>
<text xml:space="preserve" text-anchor="middle" x="696.47" y="-185.8" font-family="Arial" font-size="14.00">type</text>
</g>
<!-- Maintenance&#45;&#45;maintenance_type -->
<g id="edge11" class="edge">
<title>Maintenance--maintenance_type</title>
<path fill="none" stroke="black" d="M489.6,-343.57C513.95,-316.81 562.11,-266.75 610.25,-233 629.66,-219.4 653.97,-207.58 671.66,-199.79"/>
</g>
<!-- maintenance_cost -->
<g id="node28" class="node">
<title>maintenance_cost</title>
<ellipse fill="none" stroke="black" cx="696.47" cy="-104" rx="28.75" ry="18"/>
<text xml:space="preserve" text-anchor="middle" x="696.47" y="-99.8" font-family="Arial" font-size="14.00">cost</text>
</g>
<!-- Maintenance&#45;&#45;maintenance_cost -->
<g id="edge12" class="edge">
<title>Maintenance--maintenance_cost</title>
<path fill="none" stroke="black" d="M480.92,-343.56C498.4,-303.23 544.94,-206.09 610.25,-147 627.82,-131.1 652.35,-119.55 670.59,-112.45"/>
</g>
<!-- maintenance_notes -->
<g id="node29" class="node">
<title>maintenance_notes</title>
<ellipse fill="none" stroke="black" cx="696.47" cy="-18" rx="34.66" ry="18"/>
<text xml:space="preserve" text-anchor="middle" x="696.47" y="-13.8" font-family="Arial" font-size="14.00">notes</text>
</g>
<!-- Maintenance&#45;&#45;maintenance_notes -->
<g id="edge13" class="edge">
<title>Maintenance--maintenance_notes</title>
<path fill="none" stroke="black" d="M477.11,-343.67C488.62,-292.7 527.33,-147.33 610.25,-61 625.63,-44.99 648.26,-33.95 666.33,-27.08"/>
</g>
<!-- Fault -->
<g id="node4" class="node">
<title>Fault</title>
<polygon fill="none" stroke="black" points="499.28,-955 445.28,-955 445.28,-919 499.28,-919 499.28,-955"/>
<text xml:space="preserve" text-anchor="middle" x="472.28" y="-932.8" font-family="Arial" font-size="14.00">Fault</text>
</g>
<!-- fault_id -->
<g id="node30" class="node">
<title>fault_id</title>
<ellipse fill="none" stroke="black" cx="696.47" cy="-1066" rx="45.37" ry="18"/>
<text xml:space="preserve" text-anchor="start" x="671.58" y="-1062.8" font-family="Arial" font-weight="bold" text-decoration="underline" font-size="14.00">fault_id</text>
</g>
<!-- Fault&#45;&#45;fault_id -->
<g id="edge14" class="edge">
<title>Fault--fault_id</title>
<path fill="none" stroke="black" d="M499.61,-954.56C526.86,-972.49 570.89,-1000.77 610.25,-1023 628.58,-1033.35 649.69,-1044.01 666.32,-1052.13"/>
</g>
<!-- fault_description -->
<g id="node31" class="node">
<title>fault_description</title>
<ellipse fill="none" stroke="black" cx="696.47" cy="-980" rx="57.74" ry="18"/>
<text xml:space="preserve" text-anchor="middle" x="696.47" y="-975.8" font-family="Arial" font-size="14.00">description</text>
</g>
<!-- Fault&#45;&#45;fault_description -->
<g id="edge15" class="edge">
<title>Fault--fault_description</title>
<path fill="none" stroke="black" d="M499.64,-942.1C535.85,-949.11 601.63,-961.84 646.89,-970.6"/>
</g>
<!-- fault_date -->
<g id="node32" class="node">
<title>fault_date</title>
<ellipse fill="none" stroke="black" cx="696.47" cy="-894" rx="29.83" ry="18"/>
<text xml:space="preserve" text-anchor="middle" x="696.47" y="-889.8" font-family="Arial" font-size="14.00">date</text>
</g>
<!-- Fault&#45;&#45;fault_date -->
<g id="edge16" class="edge">
<title>Fault--fault_date</title>
<path fill="none" stroke="black" d="M499.64,-931.9C541.94,-923.71 624.6,-907.72 667.75,-899.36"/>
</g>
<!-- fault_status -->
<g id="node33" class="node">
<title>fault_status</title>
<ellipse fill="none" stroke="black" cx="696.47" cy="-808" rx="36.8" ry="18"/>
<text xml:space="preserve" text-anchor="middle" x="696.47" y="-803.8" font-family="Arial" font-size="14.00">status</text>
</g>
<!-- Fault&#45;&#45;fault_status -->
<g id="edge17" class="edge">
<title>Fault--fault_status</title>
<path fill="none" stroke="black" d="M499.61,-919.44C526.86,-901.51 570.89,-873.23 610.25,-851 629.73,-840 652.36,-828.64 669.41,-820.37"/>
</g>
<!-- severity -->
<g id="node34" class="node">
<title>severity</title>
<ellipse fill="none" stroke="black" cx="696.47" cy="-722" rx="44.31" ry="18"/>
<text xml:space="preserve" text-anchor="middle" x="696.47" y="-717.8" font-family="Arial" font-size="14.00">severity</text>
</g>
<!-- Fault&#45;&#45;severity -->
<g id="edge18" class="edge">
<title>Fault--severity</title>
<path fill="none" stroke="black" d="M484.18,-918.53C505.03,-884.49 553.54,-811.12 610.25,-765 626.07,-752.14 646.35,-741.71 663.17,-734.35"/>
</g>
<!-- Technician -->
<g id="node5" class="node">
<title>Technician</title>
<polygon fill="none" stroke="black" points="1002.63,-740 918.93,-740 918.93,-704 1002.63,-704 1002.63,-740"/>
<text xml:space="preserve" text-anchor="middle" x="960.78" y="-717.8" font-family="Arial" font-size="14.00">Technician</text>
</g>
<!-- technician_id -->
<g id="node35" class="node">
<title>technician_id</title>
<ellipse fill="none" stroke="black" cx="1227.37" cy="-894" rx="72.75" ry="18"/>
<text xml:space="preserve" text-anchor="start" x="1182.63" y="-890.8" font-family="Arial" font-weight="bold" text-decoration="underline" font-size="14.00">technician_id</text>
</g>
<!-- Technician&#45;&#45;technician_id -->
<g id="edge19" class="edge">
<title>Technician--technician_id</title>
<path fill="none" stroke="black" d="M984.38,-740.44C1017.23,-766.76 1080.59,-815.81 1138.87,-851 1155.39,-860.97 1174.55,-870.59 1190.72,-878.19"/>
</g>
<!-- technician_name -->
<g id="node36" class="node">
<title>technician_name</title>
<ellipse fill="none" stroke="black" cx="1227.37" cy="-808" rx="35.19" ry="18"/>
<text xml:space="preserve" text-anchor="middle" x="1227.37" y="-803.8" font-family="Arial" font-size="14.00">name</text>
</g>
<!-- Technician&#45;&#45;technician_name -->
<g id="edge20" class="edge">
<title>Technician--technician_name</title>
<path fill="none" stroke="black" d="M1003.12,-735.44C1057.04,-752.96 1150.04,-783.19 1197.17,-798.51"/>
</g>
<!-- technician_phone -->
<g id="node37" class="node">
<title>technician_phone</title>
<ellipse fill="none" stroke="black" cx="1227.37" cy="-722" rx="37.89" ry="18"/>
<text xml:space="preserve" text-anchor="middle" x="1227.37" y="-717.8" font-family="Arial" font-size="14.00">phone</text>
</g>
<!-- Technician&#45;&#45;technician_phone -->
<g id="edge21" class="edge">
<title>Technician--technician_phone</title>
<path fill="none" stroke="black" d="M1003.12,-722C1054.14,-722 1140.12,-722 1189.16,-722"/>
</g>
<!-- specialization -->
<g id="node38" class="node">
<title>specialization</title>
<ellipse fill="none" stroke="black" cx="1227.37" cy="-636" rx="69.01" ry="18"/>
<text xml:space="preserve" text-anchor="middle" x="1227.37" y="-631.8" font-family="Arial" font-size="14.00">specialization</text>
</g>
<!-- Technician&#45;&#45;specialization -->
<g id="edge22" class="edge">
<title>Technician--specialization</title>
<path fill="none" stroke="black" d="M1003.12,-708.56C1052.1,-692.64 1133.32,-666.24 1183.12,-650.06"/>
</g>
<!-- Supplier -->
<g id="node6" class="node">
<title>Supplier</title>
<polygon fill="none" stroke="black" points="1512.8,-513 1394.86,-513 1394.86,-477 1512.8,-477 1512.8,-513"/>
<text xml:space="preserve" text-anchor="middle" x="1453.83" y="-490.8" font-family="Arial" font-size="14.00">Service Supplier</text>
</g>
<!-- supplier_id -->
<g id="node39" class="node">
<title>supplier_id</title>
<ellipse fill="none" stroke="black" cx="1654.35" cy="-624" rx="62.55" ry="18"/>
<text xml:space="preserve" text-anchor="start" x="1617.01" y="-620.8" font-family="Arial" font-weight="bold" text-decoration="underline" font-size="14.00">supplier_id</text>
</g>
<!-- Supplier&#45;&#45;supplier_id -->
<g id="edge23" class="edge">
<title>Supplier--supplier_id</title>
<path fill="none" stroke="black" d="M1483.27,-513.48C1521.98,-538.63 1590.65,-583.26 1627.8,-607.39"/>
</g>
<!-- supplier_name -->
<g id="node40" class="node">
<title>supplier_name</title>
<ellipse fill="none" stroke="black" cx="1654.35" cy="-538" rx="35.19" ry="18"/>
<text xml:space="preserve" text-anchor="middle" x="1654.35" y="-533.8" font-family="Arial" font-size="14.00">name</text>
</g>
<!-- Supplier&#45;&#45;supplier_name -->
<g id="edge24" class="edge">
<title>Supplier--supplier_name</title>
<path fill="none" stroke="black" d="M1513.05,-507.61C1548.4,-515.27 1592.19,-524.75 1621.35,-531.07"/>
</g>
<!-- supplier_phone -->
<g id="node41" class="node">
<title>supplier_phone</title>
<ellipse fill="none" stroke="black" cx="1654.35" cy="-452" rx="37.89" ry="18"/>
<text xml:space="preserve" text-anchor="middle" x="1654.35" y="-447.8" font-family="Arial" font-size="14.00">phone</text>
</g>
<!-- Supplier&#45;&#45;supplier_phone -->
<g id="edge25" class="edge">
<title>Supplier--supplier_phone</title>
<path fill="none" stroke="black" d="M1513.05,-482.39C1547.6,-474.91 1590.21,-465.68 1619.34,-459.37"/>
</g>
<!-- company_name -->
<g id="node42" class="node">
<title>company_name</title>
<ellipse fill="none" stroke="black" cx="1654.35" cy="-366" rx="50.22" ry="18"/>
<text xml:space="preserve" text-anchor="middle" x="1654.35" y="-361.8" font-family="Arial" font-size="14.00">company</text>
</g>
<!-- Supplier&#45;&#45;company_name -->
<g id="edge26" class="edge">
<title>Supplier--company_name</title>
<path fill="none" stroke="black" d="M1483.27,-476.52C1522.41,-451.09 1592.18,-405.75 1629.02,-381.81"/>
</g>
<!-- SparePart -->
<g id="node7" class="node">
<title>SparePart</title>
<polygon fill="none" stroke="black" points="1002.24,-337 919.32,-337 919.32,-301 1002.24,-301 1002.24,-337"/>
<text xml:space="preserve" text-anchor="middle" x="960.78" y="-314.8" font-family="Arial" font-size="14.00">Spare Part</text>
</g>
<!-- SuppliedBy -->
<g id="node16" class="node">
<title>SuppliedBy</title>
<polygon fill="none" stroke="black" points="1227.37,-466 1138.87,-448 1227.37,-430 1315.86,-448 1227.37,-466"/>
<text xml:space="preserve" text-anchor="middle" x="1227.37" y="-443.8" font-family="Arial" font-size="14.00">Supplied By</text>
</g>
<!-- SparePart&#45;&#45;SuppliedBy -->
<g id="edge48" class="edge">
<title>SparePart--SuppliedBy</title>
<path fill="none" stroke="black" d="M999.69,-337.48C1054.13,-364.03 1153.07,-412.26 1200.14,-435.21"/>
</g>
<!-- part_id -->
<g id="node43" class="node">
<title>part_id</title>
<ellipse fill="none" stroke="black" cx="1227.37" cy="-362" rx="43.23" ry="18"/>
<text xml:space="preserve" text-anchor="start" x="1204.03" y="-358.8" font-family="Arial" font-weight="bold" text-decoration="underline" font-size="14.00">part_id</text>
</g>
<!-- SparePart&#45;&#45;part_id -->
<g id="edge27" class="edge">
<title>SparePart--part_id</title>
<path fill="none" stroke="black" d="M1002.54,-325.62C1052.55,-333.75 1136.79,-347.44 1186.43,-355.51"/>
</g>
<!-- part_name -->
<g id="node44" class="node">
<title>part_name</title>
<ellipse fill="none" stroke="black" cx="1227.37" cy="-276" rx="35.19" ry="18"/>
<text xml:space="preserve" text-anchor="middle" x="1227.37" y="-271.8" font-family="Arial" font-size="14.00">name</text>
</g>
<!-- SparePart&#45;&#45;part_name -->
<g id="edge28" class="edge">
<title>SparePart--part_name</title>
<path fill="none" stroke="black" d="M1002.54,-312.38C1055.02,-303.85 1145.18,-289.19 1193.5,-281.34"/>
</g>
<!-- quantity_in_stock -->
<g id="node45" class="node">
<title>quantity_in_stock</title>
<ellipse fill="none" stroke="black" cx="1227.37" cy="-190" rx="44.86" ry="18"/>
<text xml:space="preserve" text-anchor="middle" x="1227.37" y="-185.8" font-family="Arial" font-size="14.00">quantity</text>
</g>
<!-- SparePart&#45;&#45;quantity_in_stock -->
<g id="edge29" class="edge">
<title>SparePart--quantity_in_stock</title>
<path fill="none" stroke="black" d="M999.69,-300.52C1053.27,-274.39 1149.96,-227.25 1197.87,-203.89"/>
</g>
<!-- part_cost -->
<g id="node46" class="node">
<title>part_cost</title>
<ellipse fill="none" stroke="black" cx="1227.37" cy="-104" rx="28.75" ry="18"/>
<text xml:space="preserve" text-anchor="middle" x="1227.37" y="-99.8" font-family="Arial" font-size="14.00">cost</text>
</g>
<!-- SparePart&#45;&#45;part_cost -->
<g id="edge30" class="edge">
<title>SparePart--part_cost</title>
<path fill="none" stroke="black" d="M977.06,-300.75C1005.97,-267.07 1071.78,-194.27 1138.87,-147 1158.8,-132.96 1183.99,-121.11 1202.22,-113.43"/>
</g>
<!-- EquipmentType -->
<g id="node8" class="node">
<title>EquipmentType</title>
<polygon fill="none" stroke="black" points="531.25,-1213 413.31,-1213 413.31,-1177 531.25,-1177 531.25,-1213"/>
<text xml:space="preserve" text-anchor="middle" x="472.28" y="-1190.8" font-family="Arial" font-size="14.00">Equipment Type</text>
</g>
<!-- type_id -->
<g id="node47" class="node">
<title>type_id</title>
<ellipse fill="none" stroke="black" cx="696.47" cy="-1324" rx="44.85" ry="18"/>
<text xml:space="preserve" text-anchor="start" x="671.96" y="-1320.8" font-family="Arial" font-weight="bold" text-decoration="underline" font-size="14.00">type_id</text>
</g>
<!-- EquipmentType&#45;&#45;type_id -->
<g id="edge31" class="edge">
<title>EquipmentType--type_id</title>
<path fill="none" stroke="black" d="M500.89,-1213.4C528.23,-1231.37 571.5,-1259.12 610.25,-1281 628.72,-1291.43 650.03,-1302.18 666.71,-1310.32"/>
</g>
<!-- type_name -->
<g id="node48" class="node">
<title>type_name</title>
<ellipse fill="none" stroke="black" cx="696.47" cy="-1238" rx="58.82" ry="18"/>
<text xml:space="preserve" text-anchor="middle" x="696.47" y="-1233.8" font-family="Arial" font-size="14.00">type_name</text>
</g>
<!-- EquipmentType&#45;&#45;type_name -->
<g id="edge32" class="edge">
<title>EquipmentType--type_name</title>
<path fill="none" stroke="black" d="M531.66,-1206.3C567.27,-1213.19 612.3,-1221.9 646.13,-1228.45"/>
</g>
<!-- category -->
<g id="node49" class="node">
<title>category</title>
<ellipse fill="none" stroke="black" cx="696.47" cy="-1152" rx="48.08" ry="18"/>
<text xml:space="preserve" text-anchor="middle" x="696.47" y="-1147.8" font-family="Arial" font-size="14.00">category</text>
</g>
<!-- EquipmentType&#45;&#45;category -->
<g id="edge33" class="edge">
<title>EquipmentType--category</title>
<path fill="none" stroke="black" d="M531.66,-1183.7C569.84,-1176.31 618.85,-1166.83 653.27,-1160.17"/>
</g>
<!-- LocatedIn&#45;&#45;Area -->
<g id="edge35" class="edge">
<title>LocatedIn--Area</title>
<path fill="none" stroke="black" d="M272.89,-1304.63C312.3,-1325.56 391.29,-1367.51 436.81,-1391.69"/>
</g>
<!-- BelongsToType&#45;&#45;EquipmentType -->
<g id="edge37" class="edge">
<title>BelongsToType--EquipmentType</title>
<path fill="none" stroke="black" d="M275.48,-1100.69C314.56,-1119.52 388.08,-1154.93 433.07,-1176.59"/>
</g>
<!-- HasFault&#45;&#45;Fault -->
<g id="edge39" class="edge">
<title>HasFault--Fault</title>
<path fill="none" stroke="black" d="M279.08,-965.55C322.79,-959.06 403.32,-947.09 444.9,-940.92"/>
</g>
<!-- Undergoes&#45;&#45;Maintenance -->
<g id="edge41" class="edge">
<title>Undergoes--Maintenance</title>
<path fill="none" stroke="black" d="M284.55,-873.63C301.8,-866.9 321.53,-856.45 334.31,-841 454.74,-695.36 469.37,-449.38 471.08,-380.45"/>
</g>
<!-- HandledBy&#45;&#45;Technician -->
<g id="edge43" class="edge">
<title>HandledBy--Technician</title>
<path fill="none" stroke="black" d="M731.49,-647.15C779.45,-662.88 866.85,-691.53 918.47,-708.46"/>
</g>
<!-- PerformedBy&#45;&#45;Supplier -->
<g id="edge45" class="edge">
<title>PerformedBy--Supplier</title>
<path fill="none" stroke="black" d="M1027.75,-535.69C1124.27,-526.45 1302.46,-509.39 1394.46,-500.59"/>
</g>
<!-- UsesPart&#45;&#45;SparePart -->
<g id="edge47" class="edge">
<title>UsesPart--SparePart</title>
<path fill="none" stroke="black" d="M718.05,-437.88C762.13,-416.2 866.21,-365.01 922.34,-337.41"/>
</g>
<!-- SuppliedBy&#45;&#45;Supplier -->
<g id="edge49" class="edge">
<title>SuppliedBy--Supplier</title>
<path fill="none" stroke="black" d="M1272.71,-457.29C1307.59,-464.59 1356.49,-474.83 1394.53,-482.79"/>
</g>
</g>
</svg>